<svg width="59" height="60" viewBox="0 0 59 60" fill="none" xmlns="http://www.w3.org/2000/svg">
<path fill-rule="evenodd" clip-rule="evenodd" d="M16.8703 0.832031H42.1578C52.0453 0.832031 58.6661 7.7737 58.6661 18.0987V41.9308C58.6661 52.2266 52.0453 59.1654 42.1578 59.1654H16.8703C6.98276 59.1654 0.332764 52.2266 0.332764 41.9308V18.0987C0.332764 7.7737 6.98276 0.832031 16.8703 0.832031ZM38.2786 38.7487C39.2703 37.7599 39.2703 36.1558 38.2786 35.1641L33.0869 29.9725L38.2786 24.7779C39.2703 23.7891 39.2703 22.1558 38.2786 21.1641C37.2869 20.1695 35.6828 20.1695 34.6619 21.1641L29.4994 26.3529L24.3078 21.1641C23.2869 20.1695 21.6828 20.1695 20.6911 21.1641C19.6994 22.1558 19.6994 23.7891 20.6911 24.7779L25.8828 29.9725L20.6911 35.1349C19.6994 36.1558 19.6994 37.7599 20.6911 38.7487C21.1869 39.2445 21.8578 39.5099 22.4994 39.5099C23.1703 39.5099 23.8119 39.2445 24.3078 38.7487L29.4994 33.5891L34.6911 38.7487C35.1869 39.2766 35.8286 39.5099 36.4703 39.5099C37.1411 39.5099 37.7828 39.2445 38.2786 38.7487Z" fill="white"/>
</svg>
