<svg width="59" height="60" viewBox="0 0 59 60" fill="none" xmlns="http://www.w3.org/2000/svg">
<path fill-rule="evenodd" clip-rule="evenodd" d="M16.5377 0.832031H41.8252C51.7127 0.832031 58.3336 7.7737 58.3336 18.0987V41.9308C58.3336 52.2237 51.7127 59.1654 41.8252 59.1654H16.5377C6.65024 59.1654 0.000244141 52.2237 0.000244141 41.9308V18.0987C0.000244141 7.7737 6.65024 0.832031 16.5377 0.832031ZM27.5044 38.7195L41.3586 24.8654C42.3502 23.8737 42.3502 22.2695 41.3586 21.2487C40.3669 20.257 38.7336 20.257 37.7419 21.2487L25.6961 33.2945L20.5919 28.1904C19.6002 27.1987 17.9669 27.1987 16.9752 28.1904C15.9836 29.182 15.9836 30.7862 16.9752 31.807L23.9169 38.7195C24.4127 39.2154 25.0544 39.4487 25.6961 39.4487C26.3669 39.4487 27.0086 39.2154 27.5044 38.7195Z" fill="white"/>
</svg>
