<svg width="59" height="60" viewBox="0 0 59 60" fill="none" xmlns="http://www.w3.org/2000/svg">
<path fill-rule="evenodd" clip-rule="evenodd" d="M29.8334 59.1654C13.7334 59.1654 0.666687 46.1279 0.666687 29.9987C0.666687 13.8987 13.7334 0.832031 29.8334 0.832031C45.9625 0.832031 59 13.8987 59 29.9987C59 46.1279 45.9625 59.1654 29.8334 59.1654ZM39.1375 40.8195C39.4875 41.0237 39.8667 41.1404 40.275 41.1404C41.0042 41.1404 41.7334 40.7612 42.1417 40.0612C42.7542 39.0404 42.4333 37.6987 41.3834 37.057L31 30.8737V17.3987C31 16.1737 30.0084 15.2112 28.8125 15.2112C27.6167 15.2112 26.625 16.1737 26.625 17.3987V32.1279C26.625 32.8862 27.0334 33.5862 27.7042 33.9945L39.1375 40.8195Z" fill="black"/>
</svg>
