<svg width="24" height="24" viewBox="0 0 24 24" fill="none" xmlns="http://www.w3.org/2000/svg">
<path opacity="0.3" fill-rule="evenodd" clip-rule="evenodd" d="M2 4.63158C2 3.1782 3.1782 2 4.63158 2H13.47C14.0155 2 14.278 2.66919 13.8778 3.04006L12.4556 4.35821C11.9009 4.87228 11.1726 5.15789 10.4163 5.15789H7.1579C6.05333 5.15789 5.15789 6.05333 5.15789 7.1579V16.8421C5.15789 17.9467 6.05333 18.8421 7.1579 18.8421H16.8421C17.9467 18.8421 18.8421 17.9467 18.8421 16.8421V13.7518C18.8421 12.927 19.1817 12.1387 19.7809 11.572L20.9878 10.4308C21.3703 10.0691 22 10.3403 22 10.8668V19.3684C22 20.8218 20.8218 22 19.3684 22H4.63158C3.1782 22 2 20.8218 2 19.3684V4.63158Z" fill="#1F7793"/>
<path d="M10.9256 11.1882C10.5351 10.7977 10.5351 10.1645 10.9256 9.77393L18.0669 2.63266C18.8479 1.85161 20.1143 1.85161 20.8953 2.63266L21.3665 3.10387C22.1476 3.88492 22.1476 5.15125 21.3665 5.9323L14.2252 13.0736C13.8347 13.4641 13.2016 13.4641 12.811 13.0736L10.9256 11.1882Z" fill="#1F7793"/>
<path d="M8.82344 12.0062L8.08853 14.3346C7.86551 15.0412 8.46152 15.7364 9.19389 15.624L11.8974 15.209C12.4642 15.122 12.6916 14.4276 12.2861 14.0221L9.98596 11.7219C9.61453 11.3505 8.98155 11.5053 8.82344 12.0062Z" fill="#1F7793"/>
</svg>
