<svg width="10" height="13" viewBox="0 0 10 13" fill="none" xmlns="http://www.w3.org/2000/svg">
<path d="M1.15138 5.83356H8.84938C9.42404 5.83356 9.72938 5.15356 9.34738 4.72356L5.49871 0.393559C5.43628 0.323095 5.35961 0.266682 5.27377 0.228047C5.18792 0.189411 5.09485 0.169434 5.00071 0.169434C4.90657 0.169434 4.8135 0.189411 4.72766 0.228047C4.64181 0.266682 4.56514 0.323095 4.50271 0.393559L0.652711 4.72356C0.270711 5.15356 0.576044 5.83356 1.15138 5.83356ZM4.50204 12.6062C4.56447 12.6767 4.64114 12.7331 4.72699 12.7717C4.81284 12.8104 4.9059 12.8304 5.00004 12.8304C5.09418 12.8304 5.18725 12.8104 5.2731 12.7717C5.35895 12.7331 5.43562 12.6767 5.49804 12.6062L9.34671 8.27623C9.72938 7.84689 9.42404 7.16689 8.84871 7.16689H1.15138C0.576711 7.16689 0.271377 7.84689 0.653377 8.27689L4.50204 12.6062Z" fill="#9E9E9E"/>
</svg>
