<svg width="18" height="18" viewBox="0 0 18 18" fill="none" xmlns="http://www.w3.org/2000/svg">
<path d="M9.96047 9.39804L4.33547 15.023C4.22992 15.1286 4.08677 15.1879 3.9375 15.1879C3.78823 15.1879 3.64508 15.1286 3.53953 15.023C3.43398 14.9175 3.37469 14.7743 3.37469 14.6251C3.37469 14.4758 3.43398 14.3326 3.53953 14.2271L8.76727 9.00007L3.53953 3.77304C3.43398 3.66749 3.37469 3.52434 3.37469 3.37507C3.37469 3.2258 3.43398 3.08265 3.53953 2.9771C3.64508 2.87155 3.78823 2.81226 3.9375 2.81226C4.08677 2.81226 4.22992 2.87155 4.33547 2.9771L9.96047 8.6021C10.0128 8.65434 10.0543 8.71638 10.0826 8.78466C10.1109 8.85295 10.1254 8.92615 10.1254 9.00007C10.1254 9.07399 10.1109 9.14719 10.0826 9.21547C10.0543 9.28376 10.0128 9.3458 9.96047 9.39804ZM15.5855 8.6021L9.96047 2.9771C9.85492 2.87155 9.71177 2.81226 9.5625 2.81226C9.41323 2.81226 9.27008 2.87155 9.16453 2.9771C9.05898 3.08265 8.99969 3.2258 8.99969 3.37507C8.99969 3.52434 9.05898 3.66749 9.16453 3.77304L14.3923 9.00007L9.16453 14.2271C9.05898 14.3326 8.99969 14.4758 8.99969 14.6251C8.99969 14.7743 9.05898 14.9175 9.16453 15.023C9.27008 15.1286 9.41323 15.1879 9.5625 15.1879C9.71177 15.1879 9.85492 15.1286 9.96047 15.023L15.5855 9.39804C15.6378 9.3458 15.6793 9.28376 15.7076 9.21547C15.7359 9.14719 15.7504 9.07399 15.7504 9.00007C15.7504 8.92615 15.7359 8.85295 15.7076 8.78466C15.6793 8.71638 15.6378 8.65434 15.5855 8.6021Z" fill="#015289"/>
</svg>
