<svg width="25" height="24" viewBox="0 0 25 24" fill="none" xmlns="http://www.w3.org/2000/svg">
<path d="M18.42 6.37C18.09 6.29 17.74 6.25 17.38 6.25C14.76 6.25 12.63 8.38 12.63 11C12.63 11.89 12.88 12.73 13.32 13.45C13.69 14.07 14.2 14.6 14.82 14.98C15.56 15.47 16.44 15.75 17.38 15.75C19.12 15.75 20.63 14.82 21.45 13.45C21.89 12.73 22.13 11.89 22.13 11C22.13 8.74 20.55 6.84 18.42 6.37ZM19.33 10.57L16.9 13C16.81 13.09 16.62 13.18 16.49 13.2L15.56 13.33C15.22 13.38 14.99 13.14 15.04 12.81L15.17 11.88C15.19 11.75 15.28 11.57 15.37 11.47L17.45 9.39L17.8 9.04C18.22 8.62 18.71 8.42 19.32 9.04C19.93 9.66 19.75 10.15 19.33 10.57Z" fill="white"/>
<path d="M21.08 4.02V4.98C21.08 5.39 20.61 5.64 20.24 5.45C19.78 5.21 19.29 5.03 18.77 4.91C18.33 4.8 17.86 4.75 17.38 4.75C13.93 4.75 11.13 7.55 11.13 11C11.13 12.14 11.44 13.26 12.03 14.22C12.53 15.06 13.23 15.76 13.99 16.23C14.16 16.34 14.34 16.44 14.51 16.54C14.68 16.63 14.8 16.81 14.8 17V19.07C14.8 19.68 14.4 20.49 13.9 20.79L12.5 21.7C11.2 22.51 9.41 21.6 9.41 19.98V14.63C9.41 13.92 9.01 13.01 8.61 12.51L4.82 8.47C4.32 7.96 3.92 7.05 3.92 6.45V4.12C3.92 2.91 4.82 2 5.91 2H19.09C20.18 2 21.08 2.91 21.08 4.02Z" fill="white"/>
</svg>
