<svg width="18" height="18" viewBox="0 0 18 18" fill="none" xmlns="http://www.w3.org/2000/svg">
<path d="M14.4605 14.2271C14.5127 14.2794 14.5542 14.3414 14.5825 14.4097C14.6108 14.478 14.6253 14.5512 14.6253 14.6251C14.6253 14.699 14.6108 14.7722 14.5825 14.8404C14.5542 14.9087 14.5127 14.9708 14.4605 15.023C14.4082 15.0753 14.3462 15.1168 14.2779 15.145C14.2096 15.1733 14.1364 15.1879 14.0625 15.1879C13.9886 15.1879 13.9154 15.1733 13.8471 15.145C13.7789 15.1168 13.7168 15.0753 13.6645 15.023L8.03955 9.39804C7.98725 9.3458 7.94576 9.28376 7.91745 9.21547C7.88914 9.14719 7.87457 9.07399 7.87457 9.00007C7.87457 8.92615 7.88914 8.85295 7.91745 8.78466C7.94576 8.71638 7.98725 8.65434 8.03955 8.6021L13.6645 2.9771C13.7701 2.87155 13.9132 2.81226 14.0625 2.81226C14.2118 2.81226 14.3549 2.87155 14.4605 2.9771C14.566 3.08265 14.6253 3.2258 14.6253 3.37507C14.6253 3.52434 14.566 3.66749 14.4605 3.77304L9.23275 9.00007L14.4605 14.2271ZM3.60775 9.00007L8.83548 3.77304C8.94103 3.66749 9.00033 3.52434 9.00033 3.37507C9.00033 3.2258 8.94103 3.08265 8.83548 2.9771C8.72994 2.87155 8.58678 2.81226 8.43752 2.81226C8.28825 2.81226 8.14509 2.87155 8.03955 2.9771L2.41455 8.6021C2.36225 8.65434 2.32076 8.71638 2.29245 8.78466C2.26414 8.85295 2.24957 8.92615 2.24957 9.00007C2.24957 9.07399 2.26414 9.14719 2.29245 9.21547C2.32076 9.28376 2.36225 9.3458 2.41455 9.39804L8.03955 15.023C8.09181 15.0753 8.15385 15.1168 8.22214 15.145C8.29042 15.1733 8.36361 15.1879 8.43752 15.1879C8.51143 15.1879 8.58461 15.1733 8.65289 15.145C8.72118 15.1168 8.78322 15.0753 8.83548 15.023C8.88775 14.9708 8.9292 14.9087 8.95749 14.8404C8.98577 14.7722 9.00033 14.699 9.00033 14.6251C9.00033 14.5512 8.98577 14.478 8.95749 14.4097C8.9292 14.3414 8.88775 14.2794 8.83548 14.2271L3.60775 9.00007Z" fill="#015289"/>
</svg>
